<svg width="38" height="38" viewBox="0 0 38 38" fill="none" xmlns="http://www.w3.org/2000/svg">
<path d="M0 19C0 8.50659 8.50659 0 19 0C29.4934 0 38 8.50659 38 19C38 29.4934 29.4934 38 19 38C8.50659 38 0 29.4934 0 19Z" fill="#FBFBF9"/>
<path fill-rule="evenodd" clip-rule="evenodd" d="M19.5 5C19.6575 5 19.8085 5.10536 19.9199 5.29289C20.0312 5.48043 20.0938 5.73478 20.0938 6V29.586L23.8296 23.292C23.9411 23.1042 24.0923 22.9987 24.25 22.9987C24.4077 22.9987 24.5589 23.1042 24.6704 23.292C24.7819 23.4798 24.8445 23.7344 24.8445 24C24.8445 24.2656 24.7819 24.5202 24.6704 24.708L19.9204 32.708C19.8652 32.8011 19.7997 32.875 19.7276 32.9254C19.6554 32.9758 19.5781 33.0018 19.5 33.0018C19.4219 33.0018 19.3446 32.9758 19.2725 32.9254C19.2003 32.875 19.1348 32.8011 19.0796 32.708L14.3296 24.708C14.2182 24.5202 14.1555 24.2656 14.1555 24C14.1555 23.7344 14.2182 23.4798 14.3296 23.292C14.4411 23.1042 14.5923 22.9987 14.75 22.9987C14.9077 22.9987 15.0589 23.1042 15.1704 23.292L18.9063 29.586V6C18.9063 5.73478 18.9688 5.48043 19.0802 5.29289C19.1915 5.10536 19.3425 5 19.5 5Z" fill="black"/>
</svg>
